<svg width="24" height="24" viewBox="0 0 24 24" fill="none" xmlns="http://www.w3.org/2000/svg">
<path d="M19 5.2002C19 4.62364 18.9987 4.25111 18.9756 3.96778C18.959 3.76434 18.9344 3.65667 18.9121 3.59473L18.8906 3.5459C18.8188 3.40488 18.7148 3.28369 18.5879 3.19141L18.4541 3.10938C18.4047 3.0842 18.3038 3.04662 18.0322 3.02442C17.7489 3.00127 17.3764 3 16.7998 3H8.79981C7.94342 3 7.36117 3.00035 6.91113 3.03711C6.58253 3.06396 6.37418 3.10763 6.22461 3.16114L6.0918 3.21778C5.76256 3.38555 5.48707 3.64085 5.29492 3.95411L5.21778 4.0918C5.13809 4.2482 5.07293 4.47272 5.03711 4.91114C5.00035 5.36117 5 5.94342 5 6.79981V15.5361C5.58845 15.1956 6.27125 15 7 15H19V5.2002ZM7 17C5.98084 17 5.14157 17.7625 5.01758 18.7481C5.0227 18.8702 5.02848 18.9832 5.03711 19.0889C5.07293 19.5273 5.13806 19.7517 5.21778 19.9082L5.29492 20.0459C5.48706 20.3592 5.76254 20.6145 6.0918 20.7822L6.22461 20.8389C6.37417 20.8924 6.58252 20.936 6.91113 20.9629C7.36117 20.9997 7.94341 21 8.79981 21H16.7998C17.3764 21 17.7489 20.9987 18.0322 20.9756C18.3038 20.9534 18.4047 20.9158 18.4541 20.8906L18.5879 20.8086C18.7148 20.7164 18.8187 20.5952 18.8906 20.4541L18.9121 20.4053C18.9343 20.3433 18.959 20.2357 18.9756 20.0322C18.9872 19.8906 18.994 19.7268 18.9971 19.5264L19 18.7998V17H7ZM21 19C21 19.0079 20.9982 19.0156 20.998 19.0234C20.9977 19.4727 20.9967 19.8653 20.9697 20.1953C20.9415 20.5412 20.8835 20.8856 20.7402 21.2197L20.6729 21.3623C20.4212 21.8562 20.0383 22.2695 19.5684 22.5576L19.3623 22.6729C18.984 22.8656 18.5906 22.9374 18.1953 22.9697C17.8116 23.0011 17.3434 23 16.7998 23H8.79981C7.97632 23 7.29843 23.001 6.74805 22.9561C6.2562 22.9159 5.79892 22.8356 5.36719 22.6504L5.1836 22.5645C4.52513 22.2289 3.97415 21.7183 3.58985 21.0918L3.43555 20.8164C3.19738 20.3489 3.09985 19.8517 3.05176 19.3135C3.01914 19.2147 3 19.1097 3 19C3 18.8885 3.0057 18.7781 3.01465 18.6689C3.00122 18.2415 3 17.7538 3 17.2002V6.79981C3 5.97632 2.99898 5.29843 3.04395 4.74805C3.08988 4.186 3.18827 3.6689 3.43555 3.1836L3.58985 2.90821C3.97414 2.2817 4.52512 1.7711 5.1836 1.43555L5.36719 1.34961C5.79892 1.16442 6.2562 1.08414 6.74805 1.04395C7.29843 0.998982 7.97632 1 8.79981 1H16.7998C17.3434 1 17.8116 0.99893 18.1953 1.03028C18.5906 1.06259 18.984 1.13438 19.3623 1.32715L19.5684 1.44239C20.0383 1.73054 20.4211 2.14374 20.6729 2.6377L20.7402 2.78028C20.8835 3.11438 20.9415 3.45882 20.9697 3.80469C21.0011 4.18837 21 4.65665 21 5.2002V19Z" fill="#868B91"/>
</svg>
