<svg width="24" height="24" viewBox="0 0 24 24" fill="none" xmlns="http://www.w3.org/2000/svg">
<path d="M6.04883 1.87109C6.43321 1.88872 6.76348 2.04073 7.0127 2.17578C7.30644 2.33497 7.65457 2.56789 8.042 2.82617L18.5576 9.83691C18.8754 10.0488 19.1713 10.2442 19.3965 10.4258C19.6233 10.6087 19.891 10.8624 20.0449 11.2334C20.2485 11.7241 20.2486 12.2759 20.0449 12.7666C19.891 13.1375 19.6232 13.3914 19.3965 13.5742C19.1714 13.7558 18.8753 13.9512 18.5576 14.1631L8.042 21.1738C7.65463 21.4321 7.30639 21.665 7.0127 21.8242C6.76351 21.9593 6.43318 22.1113 6.04883 22.1289L5.88087 22.1279C5.29709 22.0931 4.75808 21.8042 4.40528 21.3379C4.12949 20.9733 4.05887 20.5502 4.0293 20.2275C3.99882 19.8949 4.00001 19.4762 4.00001 19.0107V4.98926C4.00001 4.52375 3.99884 4.10512 4.0293 3.77246C4.05886 3.44982 4.12949 3.02671 4.40528 2.66211C4.75809 2.19571 5.29712 1.90693 5.88087 1.87207L6.04883 1.87109ZM6.00001 19.0107C6.00001 19.5158 6.00137 19.8252 6.02149 20.0449C6.02268 20.0578 6.02515 20.0698 6.02637 20.0811C6.03652 20.0758 6.04896 20.0717 6.06055 20.0654C6.25447 19.9603 6.51262 19.7898 6.93262 19.5098L17.4482 12.499C17.7981 12.2658 18.0029 12.1277 18.1406 12.0166C18.1477 12.0109 18.1531 12.0041 18.1592 11.999C18.1533 11.9941 18.1473 11.9878 18.1406 11.9824C18.003 11.8714 17.7977 11.7339 17.4482 11.501L6.93262 4.49023C6.51232 4.21003 6.25451 4.03873 6.06055 3.93359C6.04869 3.92716 6.03673 3.92236 6.02637 3.91699C6.02508 3.92869 6.02274 3.94149 6.02149 3.95508C6.00139 4.17477 6.00001 4.4842 6.00001 4.98926V19.0107Z" fill="#0033B3"/>
</svg>
