<svg width="53" height="52" viewBox="0 0 53 52" fill="none" xmlns="http://www.w3.org/2000/svg">
<g filter="url(#filter0_i_40002754_35617)">
<rect x="0.0976562" width="52" height="52" rx="8" fill="#DC3545"/>
</g>
<g filter="url(#filter1_d_40002754_35617)">
<path d="M23.7834 10.5742C24.7706 10.0505 25.9125 9.8783 27.0129 10.0849C28.1134 10.2918 29.1115 10.8665 29.8322 11.7158C30.5181 12.5243 30.9104 13.5344 30.9474 14.5869C36.3334 16.5102 40.2012 21.552 40.2014 27.5C40.2013 28.7554 40.0255 29.9718 39.7014 31.1289C40.042 31.3657 40.3529 31.6461 40.6242 31.9658C41.3452 32.8158 41.743 33.8885 41.7433 34.999V35C41.7432 36.2828 41.2228 37.4447 40.3859 38.2949L40.3849 38.2939C39.6032 39.0884 38.5669 39.5901 37.4543 39.7178C36.3417 39.8453 35.2149 39.5925 34.2687 38.999C34.1944 38.9524 34.1223 38.9029 34.051 38.8525C31.7851 40.3641 29.0457 41.2489 26.0978 41.249C23.2535 41.2528 20.4821 40.413 18.1437 38.8525C17.4759 39.3238 16.6939 39.6233 15.8703 39.7178C14.7578 39.8452 13.6318 39.5924 12.6857 38.999C11.7392 38.4051 11.0284 37.5043 10.6828 36.4482C10.3373 35.3916 10.3798 34.2497 10.8039 33.2217C11.1534 32.3746 11.7429 31.6514 12.4924 31.1299C12.1681 29.9726 11.9934 28.7556 11.9933 27.5C11.9935 21.553 15.8608 16.5119 21.2453 14.5879C21.2646 14.0374 21.3821 13.4899 21.5959 12.9717C22.0199 11.9441 22.7958 11.0982 23.7834 10.5742ZM30.5773 16.5801C30.3429 17.1291 30.0073 17.625 29.5939 18.0449L29.593 18.0439C28.8112 18.8384 27.7749 19.3402 26.6623 19.4678C25.5498 19.5952 24.4239 19.3424 23.4777 18.749C22.6473 18.228 21.9985 17.471 21.6183 16.5801C17.1376 18.313 13.9935 22.5615 13.9933 27.5C13.9934 28.4814 14.1169 29.4339 14.3498 30.3437C14.963 30.223 15.5985 30.2181 16.2209 30.3349C17.3213 30.5417 18.3195 31.1166 19.0402 31.9658C19.7613 32.8158 20.159 33.8884 20.1594 34.999V35C20.1593 35.8608 19.9246 36.667 19.5178 37.3613C21.4681 38.5906 23.7511 39.2532 26.0959 39.25H26.0978C28.5273 39.2499 30.7847 38.5533 32.6769 37.3603C32.5091 37.0734 32.3704 36.7678 32.2658 36.4482C31.9203 35.3916 31.9638 34.2497 32.3879 33.2217C32.8119 32.1941 33.5877 31.3482 34.5754 30.8242C35.5626 30.3005 36.7045 30.1283 37.8049 30.3349C37.8177 30.3374 37.8311 30.3402 37.8439 30.3428C38.0768 29.4331 38.2013 28.4811 38.2014 27.5C38.2012 22.5616 35.0579 18.3131 30.5773 16.5801ZM15.8517 32.3008C15.1944 32.1774 14.5134 32.2807 13.9289 32.5908C13.345 32.9006 12.8965 33.3957 12.6535 33.9844C12.4108 34.5726 12.386 35.2241 12.5832 35.8271C12.7807 36.4304 13.1907 36.9547 13.7482 37.3047C14.3067 37.655 14.9774 37.8067 15.6428 37.7305C16.3081 37.6541 16.9208 37.3554 17.3771 36.8916L17.551 36.6973C17.9345 36.2273 18.1593 35.6385 18.1594 35C18.1592 34.369 17.9341 33.7529 17.5158 33.2598C17.0968 32.7661 16.5089 32.4243 15.8517 32.3008ZM37.4348 32.3008C36.7776 32.1775 36.0973 32.2809 35.5129 32.5908C34.9289 32.9007 34.4795 33.3956 34.2365 33.9844C33.9939 34.5726 33.97 35.2241 34.1672 35.8271C34.3647 36.4304 34.7746 36.9547 35.3322 37.3047C35.8906 37.6548 36.5606 37.8066 37.2258 37.7305C37.8911 37.6541 38.5038 37.3554 38.9601 36.8916L39.134 36.6973C39.5176 36.2273 39.7432 35.6385 39.7433 35C39.7432 34.369 39.5172 33.753 39.0988 33.2598C38.6798 32.7661 38.0919 32.4242 37.4348 32.3008ZM26.6437 12.0508C25.9864 11.9274 25.3054 12.0308 24.7209 12.3408C24.1368 12.6507 23.6875 13.1455 23.4445 13.7344C23.2019 14.3226 23.178 14.9741 23.3752 15.5771C23.5727 16.1805 23.9826 16.7047 24.5402 17.0547C25.0987 17.405 25.7694 17.5567 26.4348 17.4805C27.0999 17.4041 27.712 17.1052 28.1682 16.6416H28.1691C28.6578 16.145 28.9512 15.4797 28.9514 14.75C28.9512 14.1189 28.7253 13.503 28.3068 13.0098C27.8878 12.5162 27.3007 12.1743 26.6437 12.0508Z" fill="url(#paint0_linear_40002754_35617)"/>
</g>
<g filter="url(#filter2_d_40002754_35617)">
<path d="M26.0983 23.8056L25.2411 23.1519C24.5969 22.6593 23.7857 22.4206 22.9689 22.4832C22.152 22.5458 21.3893 22.9052 20.8323 23.4899C20.2753 24.0746 19.9648 24.8418 19.9626 25.639C19.9604 26.4363 20.2665 27.2051 20.8202 27.7928L25.5941 32.8712C25.6579 32.9392 25.7356 32.9934 25.8222 33.0305C25.9088 33.0677 26.0023 33.0868 26.0969 33.0868C26.1916 33.0868 26.2851 33.0677 26.3717 33.0305C26.4583 32.9934 26.536 32.9392 26.5998 32.8712L31.375 27.7928C31.9287 27.2051 32.2349 26.4363 32.2326 25.639C32.2304 24.8418 31.9199 24.0746 31.3629 23.4899C30.8059 22.9052 30.0432 22.5458 29.2264 22.4832C28.4095 22.4206 27.5984 22.6593 26.9541 23.1519L26.0983 23.8056Z" fill="url(#paint1_linear_40002754_35617)"/>
</g>
<defs>
<filter id="filter0_i_40002754_35617" x="0.0976562" y="0" width="52" height="76" filterUnits="userSpaceOnUse" color-interpolation-filters="sRGB">
<feFlood flood-opacity="0" result="BackgroundImageFix"/>
<feBlend mode="normal" in="SourceGraphic" in2="BackgroundImageFix" result="shape"/>
<feColorMatrix in="SourceAlpha" type="matrix" values="0 0 0 0 0 0 0 0 0 0 0 0 0 0 0 0 0 0 127 0" result="hardAlpha"/>
<feOffset dy="24"/>
<feGaussianBlur stdDeviation="12"/>
<feComposite in2="hardAlpha" operator="arithmetic" k2="-1" k3="1"/>
<feColorMatrix type="matrix" values="0 0 0 0 1 0 0 0 0 1 0 0 0 0 1 0 0 0 0.46 0"/>
<feBlend mode="normal" in2="shape" result="effect1_innerShadow_40002754_35617"/>
</filter>
<filter id="filter1_d_40002754_35617" x="6.45148" y="9.99985" width="39.2919" height="39.2492" filterUnits="userSpaceOnUse" color-interpolation-filters="sRGB">
<feFlood flood-opacity="0" result="BackgroundImageFix"/>
<feColorMatrix in="SourceAlpha" type="matrix" values="0 0 0 0 0 0 0 0 0 0 0 0 0 0 0 0 0 0 127 0" result="hardAlpha"/>
<feOffset dy="4"/>
<feGaussianBlur stdDeviation="2"/>
<feComposite in2="hardAlpha" operator="out"/>
<feColorMatrix type="matrix" values="0 0 0 0 0 0 0 0 0 0 0 0 0 0 0 0 0 0 0.25 0"/>
<feBlend mode="normal" in2="BackgroundImageFix" result="effect1_dropShadow_40002754_35617"/>
<feBlend mode="normal" in="SourceGraphic" in2="effect1_dropShadow_40002754_35617" result="shape"/>
</filter>
<filter id="filter2_d_40002754_35617" x="15.9626" y="20.4734" width="20.2701" height="18.6135" filterUnits="userSpaceOnUse" color-interpolation-filters="sRGB">
<feFlood flood-opacity="0" result="BackgroundImageFix"/>
<feColorMatrix in="SourceAlpha" type="matrix" values="0 0 0 0 0 0 0 0 0 0 0 0 0 0 0 0 0 0 127 0" result="hardAlpha"/>
<feOffset dy="2"/>
<feGaussianBlur stdDeviation="2"/>
<feComposite in2="hardAlpha" operator="out"/>
<feColorMatrix type="matrix" values="0 0 0 0 0 0 0 0 0 0 0 0 0 0 0 0 0 0 0.25 0"/>
<feBlend mode="normal" in2="BackgroundImageFix" result="effect1_dropShadow_40002754_35617"/>
<feBlend mode="normal" in="SourceGraphic" in2="effect1_dropShadow_40002754_35617" result="shape"/>
</filter>
<linearGradient id="paint0_linear_40002754_35617" x1="26.0983" y1="9.99998" x2="26.0983" y2="41.2492" gradientUnits="userSpaceOnUse">
<stop stop-color="white"/>
<stop offset="1" stop-color="#F8D7DA"/>
</linearGradient>
<linearGradient id="paint1_linear_40002754_35617" x1="26.0976" y1="22.4734" x2="26.0976" y2="33.0868" gradientUnits="userSpaceOnUse">
<stop stop-color="white"/>
<stop offset="1" stop-color="#F8D7DA"/>
</linearGradient>
</defs>
</svg>
