<svg width="53" height="52" viewBox="0 0 53 52" fill="none" xmlns="http://www.w3.org/2000/svg">
<g filter="url(#filter0_i_40002754_35484)">
<rect x="0.0976562" width="52" height="52" rx="8" fill="#2450BE"/>
</g>
<g filter="url(#filter1_d_40002754_35484)">
<path d="M40.8545 22.25C41.0975 23.906 41.0977 26.075 41.0977 29C41.0977 34.6565 41.0978 37.4857 39.3398 39.2422C37.5818 40.9987 34.7542 41 29.0977 41H23.0977C17.4412 41 14.612 41.0002 12.8555 39.2422C11.099 37.4842 11.0977 34.6565 11.0977 29C11.0977 26.075 11.0978 23.9045 11.3408 22.25C14.7562 24.4699 16.9447 25.8844 18.9727 26.7559V27.5C18.9695 27.7984 19.0852 28.0856 19.2939 28.2988C19.5027 28.512 19.7876 28.6335 20.0859 28.6367C20.3841 28.6398 20.6716 28.525 20.8848 28.3164C21.0979 28.1078 21.2194 27.8226 21.2227 27.5244C24.4176 28.3674 27.7777 28.3674 30.9727 27.5244C30.9759 27.8226 31.0974 28.1078 31.3105 28.3164C31.5237 28.525 31.8112 28.6398 32.1094 28.6367C32.4077 28.6335 32.6926 28.512 32.9014 28.2988C33.1101 28.0856 33.2258 27.7984 33.2227 27.5V26.7578C35.2506 25.8848 37.4391 24.47 40.8545 22.25ZM29.0977 17C34.7542 17 37.5833 16.9998 39.3398 18.7578C39.7057 19.1226 40.0059 19.5479 40.2275 20.0146C40.1397 20.0453 40.056 20.0867 39.9775 20.1367C36.8275 22.1842 34.8467 23.4666 33.2012 24.2871C33.1475 24.0131 32.9943 23.7686 32.7705 23.6016C32.5467 23.4346 32.2682 23.3572 31.9902 23.3838C31.7125 23.4104 31.4546 23.539 31.2666 23.7451C31.0785 23.9515 30.9735 24.2207 30.9727 24.5V25.1865C27.7927 26.1465 24.4027 26.1465 21.2227 25.1865V24.5C21.2238 24.2194 21.12 23.9483 20.9316 23.7402C20.7434 23.5324 20.4842 23.4028 20.2051 23.376C19.9257 23.3493 19.6462 23.4281 19.4219 23.5967C19.1976 23.7653 19.0442 24.0114 18.9922 24.2871C17.3482 23.4651 15.3697 22.1838 12.2197 20.1348C12.1408 20.0846 12.0561 20.0442 11.9678 20.0137C12.1973 19.5367 12.4885 19.1228 12.8545 18.7568C14.6125 17.0003 17.4427 17 23.0977 17H29.0977ZM26.0967 9.87402C27.2602 9.87402 28.3957 10.2345 29.3457 10.9062C30.2956 11.578 31.0135 12.5281 31.4014 13.625C31.4534 13.7648 31.4777 13.9135 31.4717 14.0625C31.4656 14.2117 31.4294 14.3589 31.3662 14.4941C31.303 14.6291 31.2139 14.7504 31.1035 14.8506C30.993 14.9508 30.8633 15.0284 30.7227 15.0781C30.5819 15.1279 30.4322 15.1491 30.2832 15.1406C30.1342 15.1321 29.9886 15.0937 29.8545 15.0283C29.7204 14.9629 29.6004 14.8718 29.502 14.7598C29.4035 14.6476 29.3277 14.5165 29.2803 14.375C29.0474 13.717 28.6168 13.147 28.0469 12.7441C27.4769 12.3412 26.7957 12.125 26.0977 12.125C25.3996 12.125 24.7185 12.3412 24.1484 12.7441C23.5785 13.147 23.148 13.717 22.915 14.375C22.8156 14.6564 22.6081 14.8869 22.3389 15.0156C22.0696 15.1443 21.7599 15.1609 21.4785 15.0615C21.3392 15.0123 21.2105 14.9357 21.1006 14.8369C20.9908 14.7381 20.9016 14.6186 20.8379 14.4854C20.7742 14.352 20.7373 14.2072 20.7295 14.0596C20.7217 13.912 20.7428 13.7643 20.792 13.625C21.1798 12.528 21.8986 11.578 22.8486 10.9062C23.7986 10.2346 24.9333 9.87407 26.0967 9.87402Z" fill="url(#paint0_linear_40002754_35484)"/>
</g>
<defs>
<filter id="filter0_i_40002754_35484" x="0.0976562" y="0" width="52" height="76" filterUnits="userSpaceOnUse" color-interpolation-filters="sRGB">
<feFlood flood-opacity="0" result="BackgroundImageFix"/>
<feBlend mode="normal" in="SourceGraphic" in2="BackgroundImageFix" result="shape"/>
<feColorMatrix in="SourceAlpha" type="matrix" values="0 0 0 0 0 0 0 0 0 0 0 0 0 0 0 0 0 0 127 0" result="hardAlpha"/>
<feOffset dy="24"/>
<feGaussianBlur stdDeviation="12"/>
<feComposite in2="hardAlpha" operator="arithmetic" k2="-1" k3="1"/>
<feColorMatrix type="matrix" values="0 0 0 0 1 0 0 0 0 1 0 0 0 0 1 0 0 0 0.46 0"/>
<feBlend mode="normal" in2="shape" result="effect1_innerShadow_40002754_35484"/>
</filter>
<filter id="filter1_d_40002754_35484" x="7.09766" y="9.87402" width="38" height="39.126" filterUnits="userSpaceOnUse" color-interpolation-filters="sRGB">
<feFlood flood-opacity="0" result="BackgroundImageFix"/>
<feColorMatrix in="SourceAlpha" type="matrix" values="0 0 0 0 0 0 0 0 0 0 0 0 0 0 0 0 0 0 127 0" result="hardAlpha"/>
<feOffset dy="4"/>
<feGaussianBlur stdDeviation="2"/>
<feComposite in2="hardAlpha" operator="out"/>
<feColorMatrix type="matrix" values="0 0 0 0 0 0 0 0 0 0 0 0 0 0 0 0 0 0 0.25 0"/>
<feBlend mode="normal" in2="BackgroundImageFix" result="effect1_dropShadow_40002754_35484"/>
<feBlend mode="normal" in="SourceGraphic" in2="effect1_dropShadow_40002754_35484" result="shape"/>
</filter>
<linearGradient id="paint0_linear_40002754_35484" x1="26.0977" y1="9.87402" x2="26.0977" y2="41" gradientUnits="userSpaceOnUse">
<stop offset="0.350962" stop-color="white"/>
<stop offset="1" stop-color="#B6C5E9"/>
</linearGradient>
</defs>
</svg>
